name Walk1.mot
datacolumns 19
datarows 25
range 3.82000000 3.84400000
endheader

                time	   L_ground_force_vx	   L_ground_force_vy	   L_ground_force_vz	   L_ground_force_px	   L_ground_force_py	   L_ground_force_pz	   R_ground_force_vx	   R_ground_force_vy	   R_ground_force_vz	   R_ground_force_px	   R_ground_force_py	   R_ground_force_pz	   L_ground_torque_x	   L_ground_torque_y	   L_ground_torque_z	   R_ground_torque_x	   R_ground_torque_y	   R_ground_torque_z	
          3.82000000	          0.12511584	          0.38723712	          0.00356006	         -0.00020684	          0.00000000	         -0.00009243	        -11.43183099	        760.25035936	        -67.24269469	          0.25391048	          0.00000000	          0.11744253	          0.00000000	          0.00028910	          0.00000000	          0.00000000	          7.51119959	          0.00000000	
          3.82100000	          0.12274343	          0.37585193	          0.00268235	         -0.00022282	          0.00000000	         -0.00010031	        -11.18915394	        759.12819200	        -66.99083608	          0.25420331	          0.00000000	          0.11746878	          0.00000000	          0.00028819	          0.00000000	          0.00000000	          7.44683023	          0.00000000	
          3.82200000	          0.12010892	          0.36401449	          0.00186912	         -0.00023659	          0.00000000	         -0.00010714	        -10.94655977	        758.01752662	        -66.73889154	          0.25449655	          0.00000000	          0.11749535	          0.00000000	          0.00028627	          0.00000000	          0.00000000	          7.38263888	          0.00000000	
          3.82300000	          0.11724454	          0.35180800	          0.00111797	         -0.00024829	          0.00000000	         -0.00011298	        -10.70405795	        756.91831530	        -66.48719842	          0.25479024	          0.00000000	          0.11752232	          0.00000000	          0.00028343	          0.00000000	          0.00000000	          7.31863763	          0.00000000	
          3.82400000	          0.11418066	          0.33930995	          0.00042647	         -0.00025807	          0.00000000	         -0.00011791	        -10.46166842	        755.83046564	        -66.23609923	          0.25508446	          0.00000000	          0.11754973	          0.00000000	          0.00027977	          0.00000000	          0.00000000	          7.25484129	          0.00000000	
          3.82500000	          0.11094583	          0.32659237	         -0.00020785	         -0.00026603	          0.00000000	         -0.00012196	        -10.21942218	        754.75384313	        -65.98594011	          0.25537926	          0.00000000	          0.11757765	          0.00000000	          0.00027535	          0.00000000	          0.00000000	          7.19126728	          0.00000000	
          3.82600000	          0.10756679	          0.31372197	         -0.00078746	         -0.00027232	          0.00000000	         -0.00012522	         -9.97736119	        753.68827390	        -65.73706932	          0.25567473	          0.00000000	          0.11760614	          0.00000000	          0.00027027	          0.00000000	          0.00000000	          7.12793567	          0.00000000	
          3.82700000	          0.10406858	          0.30076038	         -0.00131481	         -0.00027704	          0.00000000	         -0.00012772	         -9.73553789	        752.63354748	        -65.48983574	          0.25597095	          0.00000000	          0.11763528	          0.00000000	          0.00026460	          0.00000000	          0.00000000	          7.06486929	          0.00000000	
          3.82800000	          0.10047456	          0.28776434	         -0.00179235	         -0.00028031	          0.00000000	         -0.00012953	         -9.49401454	        751.58941930	        -65.24458766	          0.25626799	          0.00000000	          0.11766511	          0.00000000	          0.00025842	          0.00000000	          0.00000000	          7.00209376	          0.00000000	
          3.82900000	          0.09680644	          0.27478588	         -0.00222251	         -0.00028225	          0.00000000	         -0.00013069	         -9.25286255	        750.55561292	        -65.00167166	          0.25656595	          0.00000000	          0.11769569	          0.00000000	          0.00025178	          0.00000000	          0.00000000	          6.93963724	          0.00000000	
          3.83000000	          0.09308440	          0.26187255	         -0.00260771	         -0.00028295	          0.00000000	         -0.00013126	         -9.01216227	        749.53182251	        -64.76143159	          0.25686491	          0.00000000	          0.11772708	          0.00000000	          0.00024476	          0.00000000	          0.00000000	          6.87752996	          0.00000000	
          3.83100000	          0.08932707	          0.24906762	         -0.00295030	         -0.00028253	          0.00000000	         -0.00013129	         -8.77200298	        748.51771586	        -64.52420753	          0.25716497	          0.00000000	          0.11775932	          0.00000000	          0.00023740	          0.00000000	          0.00000000	          6.81580362	          0.00000000	
          3.83200000	          0.08555166	          0.23641024	         -0.00325261	         -0.00028107	          0.00000000	         -0.00013082	         -8.53248276	        747.51293824	        -64.29033477	          0.25746623	          0.00000000	          0.11779246	          0.00000000	          0.00022978	          0.00000000	          0.00000000	          6.75449094	          0.00000000	
          3.83300000	          0.08177397	          0.22393570	         -0.00351693	         -0.00027868	          0.00000000	         -0.00012989	         -8.29370820	        746.51711727	        -64.06014272	          0.25776877	          0.00000000	          0.11782653	          0.00000000	          0.00022194	          0.00000000	          0.00000000	          6.69362522	          0.00000000	
          3.83400000	          0.07800847	          0.21167561	         -0.00374548	         -0.00027543	          0.00000000	         -0.00012855	         -8.05579355	        745.52986812	        -63.83395370	          0.25807270	          0.00000000	          0.11786158	          0.00000000	          0.00021392	          0.00000000	          0.00000000	          6.63324020	          0.00000000	
          3.83500000	          0.07426836	          0.19965804	         -0.00394045	         -0.00027142	          0.00000000	         -0.00012684	         -7.81885945	        744.55079848	        -63.61208176	          0.25837811	          0.00000000	          0.11789765	          0.00000000	          0.00020578	          0.00000000	          0.00000000	          6.57337008	          0.00000000	
          3.83600000	          0.07056560	          0.18790780	         -0.00410395	         -0.00026673	          0.00000000	         -0.00012480	         -7.58303132	        743.57951307	        -63.39483125	          0.25868509	          0.00000000	          0.11793476	          0.00000000	          0.00019755	          0.00000000	          0.00000000	          6.51404955	          0.00000000	
          3.83700000	          0.06691101	          0.17644655	         -0.00423804	         -0.00026143	          0.00000000	         -0.00012245	         -7.34843759	        742.61561745	        -63.18249550	          0.25899373	          0.00000000	          0.11797296	          0.00000000	          0.00018928	          0.00000000	          0.00000000	          6.45531388	          0.00000000	
          3.83800000	          0.06331431	          0.16529303	         -0.00434472	         -0.00025559	          0.00000000	         -0.00011985	         -7.11520793	        741.65872121	        -62.97535532	          0.25930413	          0.00000000	          0.11801227	          0.00000000	          0.00018099	          0.00000000	          0.00000000	          6.39719873	          0.00000000	
          3.83900000	          0.05978417	          0.15446323	         -0.00442591	         -0.00024928	          0.00000000	         -0.00011701	         -6.88347171	        740.70844100	        -62.77367792	          0.25961637	          0.00000000	          0.11805274	          0.00000000	          0.00017272	          0.00000000	          0.00000000	          6.33973980	          0.00000000	
          3.84000000	          0.05632827	          0.14397054	         -0.00448347	         -0.00024256	          0.00000000	         -0.00011398	         -6.65335662	        739.76440362	        -62.57771582	          0.25993053	          0.00000000	          0.11809439	          0.00000000	          0.00016451	          0.00000000	          0.00000000	          6.28297238	          0.00000000	
          3.84100000	          0.05295334	          0.13382595	         -0.00451919	         -0.00023550	          0.00000000	         -0.00011076	         -6.42498740	        738.82624959	        -62.38770610	          0.26024670	          0.00000000	          0.11813725	          0.00000000	          0.00015637	          0.00000000	          0.00000000	          6.22693092	          0.00000000	
          3.84200000	          0.04966528	          0.12403820	         -0.00453480	         -0.00022815	          0.00000000	         -0.00010741	         -6.19848458	        737.89363724	        -62.20386963	          0.26056493	          0.00000000	          0.11818135	          0.00000000	          0.00014833	          0.00000000	          0.00000000	          6.17164877	          0.00000000	
          3.84300000	          0.04646910	          0.11461394	         -0.00453195	         -0.00022057	          0.00000000	         -0.00010393	         -5.97396332	        736.96624692	        -62.02641045	          0.26088530	          0.00000000	          0.11822670	          0.00000000	          0.00014042	          0.00000000	          0.00000000	          6.11715799	          0.00000000	
          3.84400000	          0.04336908	          0.10555786	         -0.00451222	         -0.00021279	          0.00000000	         -0.00010036	         -5.75153224	        736.04378515	        -61.85551514	          0.26120787	          0.00000000	          0.11827334	          0.00000000	          0.00013264	          0.00000000	          0.00000000	          6.06348928	          0.00000000	
